<svg width="120" height="120" viewBox="0 0 200 200" xmlns="http://www.w3.org/2000/svg">
                        <circle cx="100" cy="100" r="95" fill="white"/>
                        <circle cx="100" cy="100" r="75" fill="none" stroke="#1e293b" stroke-width="3" opacity="0.3" stroke-dasharray="8,4"/>
                        <g transform="translate(100, 100)">
                            <g fill="#1e293b" opacity="0.9">
                                <rect x="-3" y="-45" width="6" height="8" rx="2"/>
                                <rect x="-3" y="37" width="6" height="8" rx="2"/>
                                <rect x="37" y="-3" width="8" height="6" rx="2"/>
                                <rect x="-45" y="-3" width="8" height="6" rx="2"/>
                                <g transform="rotate(45)">
                                    <rect x="-3" y="-45" width="6" height="8" rx="2"/>
                                    <rect x="-3" y="37" width="6" height="8" rx="2"/>
                                    <rect x="37" y="-3" width="8" height="6" rx="2"/>
                                    <rect x="-45" y="-3" width="8" height="6" rx="2"/>
                                </g>
                            </g>
                            <circle r="35" fill="#3B82F6"/>
                            <circle r="12" fill="white"/>
                        </g>
                        <g transform="translate(100, 100)" fill="none" stroke="#1e293b" stroke-width="2.5" stroke-linecap="round">
                            <path d="M -20,-55 A 35 35 0 0 1 20,-55" opacity="0.8"/>
                            <path d="M 15,-60 L 20,-55 L 15,-50" fill="#1e293b"/>
                            <path d="M 20,55 A 35 35 0 0 1 -20,55" opacity="0.8"/>
                            <path d="M -15,50 L -20,55 L -15,60" fill="#1e293b"/>
                        </g>
                        <g fill="#1e293b" opacity="0.6">
                            <circle cx="60" cy="60" r="2"/>
                            <circle cx="140" cy="60" r="2"/>
                            <circle cx="140" cy="140" r="2"/>
                            <circle cx="60" cy="140" r="2"/>
                        </g>
                    </svg>